<svg width="480" height="510" viewBox="0 0 480 510" fill="none" xmlns="http://www.w3.org/2000/svg">
<path d="M214.031 497.304L44.625 300.805C40.6875 296.262 36.9375 291.37 33.4688 286.361H115.031C136.219 286.361 155.344 270.52 163.5 246.176L173.344 216.824L219.562 344.368C223.125 354.268 230.906 360.675 239.625 360.791C248.344 360.908 256.313 354.967 260.25 345.299L300 246.409L301.594 250.369C310.5 272.5 328.687 286.478 348.562 286.478H446.531C443.062 291.486 439.312 296.378 435.375 300.921L265.969 497.304C258.938 505.457 249.656 510 240 510C230.344 510 221.063 505.457 214.031 497.304ZM472.219 230.452H348.469C345.656 230.452 343.031 228.472 341.719 225.327L319.969 171.397C316.125 161.962 308.344 155.905 299.812 155.905C291.281 155.905 283.5 161.846 279.656 171.397L240.844 267.841L193.031 135.172C189.375 125.039 181.125 118.516 172.219 118.749C163.312 118.982 155.25 125.621 151.781 135.988L121.969 224.861C120.844 228.355 118.031 230.568 115.031 230.568H15C12.5625 230.568 10.3125 231.034 8.15625 231.849C2.8125 213.213 0 193.411 0 173.261V166.505C0 85.0865 47.3438 15.6653 111.938 2.27029C154.688 -6.58208 198.188 10.7732 228.75 48.7452L240 62.7226L251.25 48.7452C281.812 10.7732 325.313 -6.58208 368.063 2.27029C432.656 15.6653 480 85.0865 480 166.505V173.261C480 192.946 477.375 212.281 472.219 230.452Z" fill="white"/>
</svg>
